<svg xmlns="http://www.w3.org/2000/svg" data-name="Layer 1" viewBox="0 0 100 125" x="0px" y="0px"><defs><style>.cls-1,.cls-2{fill:none;}.cls-2{stroke:#000;stroke-linecap:round;stroke-linejoin:round;stroke-width:0;}</style></defs><title>Raspberry</title><path class="cls-1" d="M48.36,73.61c1.55-1.69,1.89-4.63,1.86-5.83A7.27,7.27,0,0,1,46,65a7.15,7.15,0,0,1-5.88,3.74c.36,2,1.55,6.13,5.13,6.19A3.9,3.9,0,0,0,48.36,73.61Z"/><path class="cls-1" d="M35,53.77c1.41.13,3.85,0,5-2.34A6.26,6.26,0,0,1,39,48.64a16,16,0,0,1,.61-5.72,4.39,4.39,0,0,0-5.8-1.45l-.62.32-.07-.07c-.89.41-2.8,1.69-3.35,5.34a5.13,5.13,0,0,0,1,4.08A7.91,7.91,0,0,0,35,53.77Z"/><path class="cls-1" d="M29,52a7.15,7.15,0,0,1-1.14-5.19,8.83,8.83,0,0,1,3.49-6.27A5,5,0,0,0,29,40.09a7,7,0,0,0-4.67,2.85c-.29.47-2.68,4.53.46,8.3A3.78,3.78,0,0,0,29,52Z"/><path class="cls-1" d="M46.43,55.73c-.26,1.57-.67,5.36,1,7.89A5.44,5.44,0,0,0,51.28,66c.67,0,5.26-.27,6-4.11a13,13,0,0,1-1.25-5,8.19,8.19,0,0,1-5-2.72,6.23,6.23,0,0,1-4.12,1.62C46.77,55.77,46.6,55.74,46.43,55.73Z"/><path class="cls-1" d="M60.63,71.78a8.3,8.3,0,0,0,1.47-5.68,7.47,7.47,0,0,1-3.4-2.16c-1.36,2.69-4.32,3.73-6.48,4a11.87,11.87,0,0,1-.11,1.57h.07c0,.19,1.05,4.65,4.8,4.4A4.94,4.94,0,0,0,60.63,71.78Z"/><path class="cls-1" d="M46.59,40.33h-.07c-1.68,0-3.32,1-4.89,3a13.48,13.48,0,0,0-.6,5.24c.09,1.68,2,4.17,4.38,5A4.3,4.3,0,0,0,50,52.39a8,8,0,0,1-.58-2.49c-.3-4,.93-6.12,1.84-7.13A7.14,7.14,0,0,0,46.59,40.33Z"/><path class="cls-1" d="M44.79,62.63a16.11,16.11,0,0,1-.31-7.34,9.15,9.15,0,0,1-3.2-2.14,6.53,6.53,0,0,1-5.6,2.66c-.33,0-.62,0-.86,0a4.81,4.81,0,0,1-1-.23c-.32.55-.86,2-.8,5.32A5.57,5.57,0,0,0,38,66.7C40.49,67,43.63,66.49,44.79,62.63Z"/><path class="cls-1" d="M29.09,38.09a7.47,7.47,0,0,1,4.41,1.33,6.27,6.27,0,0,1,7.29,1.76A10.47,10.47,0,0,1,43,39.38L40.5,37.66c-.54-.38-3-.3-4.25-.26l-1.41,0a7.67,7.67,0,0,0-.77.06c-2,.22-5.47.58-8.25-6.08A15.8,15.8,0,0,0,24,28.16a40.69,40.69,0,0,1,2,5.72C27,37.46,28.89,38,29.09,38.09Z"/><path class="cls-1" d="M58.07,56.91c.13,2,.89,6.5,5.13,7.42A3,3,0,0,0,66.58,63c1.78-2.58,1.71-7.69.36-9.8a11.32,11.32,0,0,1-2.68-1.36A7.64,7.64,0,0,1,58.07,56.91Z"/><path class="cls-1" d="M57.08,41.75a5,5,0,0,0-3.7,1.82l-.83.85,0,0c-.59.78-1.33,2.37-1.11,5.38.41,5.37,6.06,5.21,6.1,5.21a5.67,5.67,0,0,0,5.2-5.54,13,13,0,0,0-1.29-4.89l-.86-1A5.43,5.43,0,0,0,57.08,41.75Z"/><path class="cls-1" d="M51.3,72.57A8.05,8.05,0,0,1,49.83,75a5.88,5.88,0,0,1-4.5,1.94,5.37,5.37,0,0,0,5.1,4.65,3.73,3.73,0,0,0,2.92-1c1.39-1.32,1.81-3.62,1.94-4.85A6.46,6.46,0,0,1,51.3,72.57Z"/><path class="cls-1" d="M70,53.57l-.6,0h0a14.25,14.25,0,0,1,.35,6.83,6.85,6.85,0,0,0,3,1.15A6.29,6.29,0,0,0,75,58.21c.48-1.88.07-4.05-1.22-6.46A6.15,6.15,0,0,1,70,53.57Z"/><path class="cls-1" d="M69.09,62.43a8.18,8.18,0,0,1-.86,1.68,5,5,0,0,1-4.09,2.3A9.89,9.89,0,0,1,64,68.55c.5.85,2.28,3.56,5,4,.83-.3,4.37-2.05,2.72-9.12A8.85,8.85,0,0,1,69.09,62.43Z"/><path class="cls-1" d="M63.32,71A9.32,9.32,0,0,1,62.24,73a7,7,0,0,1-3.42,2.55,5.69,5.69,0,0,0,6,4.79,5.76,5.76,0,0,0,3.36-5.85A9.35,9.35,0,0,1,63.32,71Z"/><path class="cls-1" d="M68.71,40.87a6.21,6.21,0,0,0-4.23-.16,3.93,3.93,0,0,0-1.94,1.95c1.82,2.09,2.15,6.19,2.18,6.7v.12c0,.06,0,.12,0,.18.77.61,2.9,2.13,5.08,1.93a4.55,4.55,0,0,0,3.21-2A7.24,7.24,0,0,0,68.71,40.87Z"/><path class="cls-1" d="M74.66,31.62a10.35,10.35,0,0,1,.6-3,11.77,11.77,0,0,0-1.67,3.16c-.87,2.55-3.22,5.48-9.43,5a10.64,10.64,0,0,0-5.94,1l-3.4,2.1,2-3.45c.61-1,.95-4.35,1.41-8.93v-.13a6.61,6.61,0,0,1,1.64-3.78,8.49,8.49,0,0,0-2.6,3.86c-.53,1.69-2.35,5.94-2.42,6.12L53,37.92,53,33.22c-.17-11.45-6.39-20.27-8.38-22.81l-.31.26A32.39,32.39,0,0,1,48,36.43l-.3.9-.92-.26c-4.26-1.2-6.41-7.9-7.36-12.15-1.07,5.36,2.43,11.33,2.47,11.4l1.62,2.72a6.59,6.59,0,0,1,3.08-.72,9.1,9.1,0,0,1,6.11,3.1,6.46,6.46,0,0,1,4.42-1.68A6.81,6.81,0,0,1,61,41.23a5.69,5.69,0,0,1,2.7-2.37,8.17,8.17,0,0,1,5.8.18c.2.09.37.19.55.28C72.73,38.11,74.58,34.45,74.66,31.62Z"/><path class="cls-1" d="M54.73,82a5.63,5.63,0,0,1-4,1.54h-.39a7.08,7.08,0,0,1-4.47-1.74c-.09,1.5.05,3.44,1.15,4.64a4.57,4.57,0,0,0,6.9-.73,8.51,8.51,0,0,0,1-3.84Z"/><path class="cls-1" d="M40.66,74.8A12.06,12.06,0,0,1,38,68.71H37.8l-.58-.09c-1.41,4.26-5.55,5.87-8.38,6.24.36,1.66,1.46,4.8,4.55,4.94C33.93,79.76,39.72,79.4,40.66,74.8Z"/><path class="cls-1" d="M44.13,79.54a9.23,9.23,0,0,1-.89-3,5.78,5.78,0,0,1-.87-.4c-1.29,3.73-5.2,5.19-7.91,5.54a5.45,5.45,0,0,0,4.88,5c1.18-.1,3.94-.64,4.68-2.16A13.76,13.76,0,0,1,44.13,79.54Z"/><path class="cls-1" d="M35.32,68a7.22,7.22,0,0,1-3.75-4.08,6.69,6.69,0,0,1-4.06,1.21A10.72,10.72,0,0,1,26.13,65c-.38,1.8-.88,6,1.86,7.91C29.26,72.82,33.93,72.19,35.32,68Z"/><path class="cls-1" d="M31.07,61.49c0-.2,0-.39,0-.6-.06-3.3.43-5.15,1-6.19a10.25,10.25,0,0,1-1.68-1.21,5.82,5.82,0,0,1-2.9.82,5.92,5.92,0,0,1-3.12-.92,9.29,9.29,0,0,0-1.21,5.85,5.76,5.76,0,0,0,2.68,3.68C26.52,63.07,29.79,63.59,31.07,61.49Z"/><path class="cls-1" d="M57.13,76.95a12.18,12.18,0,0,1-.66,2.39,8.1,8.1,0,0,1,.22,4.34l.09,0A9.32,9.32,0,0,0,59.4,87.1a3.2,3.2,0,0,0,2.16-.59,6.77,6.77,0,0,0,2.3-4.22A7.45,7.45,0,0,1,57.13,76.95Z"/><path d="M76.66,31.68c.09-3,2.48-6.26,2.51-6.3l1.91-2.6-3,1.06c-2.56.9-5.17,3.89-6.33,7.27-.94,2.74-3.43,4-7.4,3.69a14.86,14.86,0,0,0-5,.44c.35-1.69.59-4.12.94-7.52v-.13c.43-4.22,5.46-4.9,5.67-4.93L71.12,22,66,20.71c-6.37-1.67-9.7,3.1-10.66,6.18-.15.49-.44,1.25-.75,2.05a41.74,41.74,0,0,0-9.18-20.6l-.64-.71-3.2,2.63.49.75a31.3,31.3,0,0,1,4.33,23.73C43,32.55,41.24,24.44,40.81,21.23l-.36-2.69L39,20.82c-3.27,5.06-1.19,11.42.23,14.57-.86-.05-1.88,0-3,0-.86,0-1.5,0-2.33.1-1.78.19-4,.43-6.19-4.86-3.16-7.56-7-6.72-7.43-6.6l-2.69.76,2.56,1.12c.86.38,2.43,2.83,4,8.49a9.36,9.36,0,0,0,2.35,4.3,10.63,10.63,0,0,0-3.72,3l-.06.08A9.15,9.15,0,0,0,22.81,52c-.77,1.31-2.31,4.46-1.67,7.65a7.52,7.52,0,0,0,3.1,4.66c-.46,2-1.31,7.47,2.51,10.22.36,2.49,1.91,6.47,5.68,7.18.27,2.63,1.9,6.55,6.78,7.06l.1-1,.06,1c.18,0,3.48-.25,5.43-2a5.43,5.43,0,0,0,.73,1A6,6,0,0,0,50,89.7a7.34,7.34,0,0,0,.91-.06,6.12,6.12,0,0,0,4.71-3c.09-.16.17-.33.24-.49a8,8,0,0,0,2.67,2.77l.47-.88-.23,1a4,4,0,0,0,.86.08,5.28,5.28,0,0,0,3-.92C64.34,87,65.45,85,66,82a7.73,7.73,0,0,0,4.25-7.74A6.72,6.72,0,0,0,73,71.65c1.27-2.11,1.52-4.93.75-8.39a8.32,8.32,0,0,0,3.09-4.52c.7-2.65.05-5.64-1.91-8.88.32-1.48.91-6.15-3-9.32A11.72,11.72,0,0,0,76.66,31.68ZM24,28.16a15.8,15.8,0,0,1,1.76,3.25c2.78,6.66,6.2,6.3,8.25,6.08a7.67,7.67,0,0,1,.77-.06l1.41,0c1.3,0,3.71-.11,4.25.26L43,39.38a10.47,10.47,0,0,0-2.16,1.8,6.27,6.27,0,0,0-7.29-1.76,7.47,7.47,0,0,0-4.41-1.33C28.89,38,27,37.46,26,33.87A40.69,40.69,0,0,0,24,28.16ZM61.42,44.53a13,13,0,0,1,1.29,4.89A5.67,5.67,0,0,1,57.52,55s-5.69.16-6.1-5.21c-.23-3,.52-4.61,1.11-5.38l0,0,.83-.85a5,5,0,0,1,3.7-1.82,5.43,5.43,0,0,1,3.48,1.77Zm2.84,7.3a11.32,11.32,0,0,0,2.68,1.36c1.35,2.11,1.42,7.21-.36,9.8a3,3,0,0,1-3.38,1.35c-4.24-.92-5-5.45-5.13-7.42A7.64,7.64,0,0,0,64.27,51.83Zm4.94,8.28h0ZM53.35,80.57a3.73,3.73,0,0,1-2.92,1,5.37,5.37,0,0,1-5.1-4.65A5.88,5.88,0,0,0,49.83,75a8.05,8.05,0,0,0,1.47-2.39,6.46,6.46,0,0,0,4,3.14C55.16,77,54.74,79.25,53.35,80.57ZM40.08,68.71A7.15,7.15,0,0,0,46,65a7.27,7.27,0,0,0,4.26,2.82c0,1.2-.31,4.14-1.86,5.83a3.9,3.9,0,0,1-3.15,1.29C41.63,74.84,40.44,70.68,40.08,68.71Zm-7-7.86c-.06-3.34.48-4.77.8-5.32a4.81,4.81,0,0,0,1,.23c.24,0,.53,0,.86,0a6.53,6.53,0,0,0,5.6-2.66,9.15,9.15,0,0,0,3.2,2.14,16.11,16.11,0,0,0,.31,7.34C43.63,66.49,40.49,67,38,66.7A5.57,5.57,0,0,1,33,60.85Zm-2.19-9.7a5.13,5.13,0,0,1-1-4.08c.55-3.65,2.47-4.94,3.35-5.34l.07.07.62-.32a4.39,4.39,0,0,1,5.8,1.45A16,16,0,0,0,39,48.64,6.26,6.26,0,0,0,40,51.43c-1.11,2.31-3.55,2.47-5,2.34A7.91,7.91,0,0,1,30.84,51.15Zm25.22,5.72a13,13,0,0,0,1.25,5c-.77,3.84-5.37,4.1-6,4.11a5.44,5.44,0,0,1-3.83-2.35c-1.67-2.53-1.27-6.32-1-7.89.17,0,.34,0,.5,0a6.23,6.23,0,0,0,4.12-1.62A8.19,8.19,0,0,0,56.06,56.87Zm.92,17c-3.75.25-4.76-4.21-4.8-4.4h-.07a11.87,11.87,0,0,0,.11-1.57c2.16-.24,5.12-1.29,6.48-4a7.47,7.47,0,0,0,3.4,2.16,8.3,8.3,0,0,1-1.47,5.68A4.94,4.94,0,0,1,57,73.87Zm-7.55-24A8,8,0,0,0,50,52.39a4.3,4.3,0,0,1-4.59,1.11c-2.39-.81-4.29-3.3-4.38-5a13.48,13.48,0,0,1,.6-5.24c1.57-2,3.22-3,4.89-3h.07a7.14,7.14,0,0,1,4.68,2.45C50.35,43.79,49.12,45.91,49.42,49.9Zm-25.1-7A7,7,0,0,1,29,40.09a5,5,0,0,1,2.32.41,8.83,8.83,0,0,0-3.49,6.27A7.15,7.15,0,0,0,29,52a3.78,3.78,0,0,1-4.18-.72C21.64,47.47,24,43.41,24.32,42.94ZM23.1,59.23a9.29,9.29,0,0,1,1.21-5.85,5.92,5.92,0,0,0,3.12.92,5.82,5.82,0,0,0,2.9-.82A10.25,10.25,0,0,0,32,54.7c-.54,1-1,2.89-1,6.19,0,.21,0,.4,0,.6-1.28,2.1-4.55,1.58-5.28,1.43A5.76,5.76,0,0,1,23.1,59.23Zm3,5.77a10.72,10.72,0,0,0,1.37.09,6.69,6.69,0,0,0,4.06-1.21A7.22,7.22,0,0,0,35.32,68c-1.38,4.22-6.06,4.85-7.33,4.94C25.25,71,25.76,66.8,26.13,65Zm2.72,9.84c2.82-.37,7-2,8.38-6.24l.58.09H38a12.06,12.06,0,0,0,2.62,6.09c-.94,4.6-6.73,5-7.26,5C30.31,79.64,29.21,76.5,28.85,74.84Zm10.49,11.9a5.45,5.45,0,0,1-4.88-5c2.71-.35,6.62-1.81,7.91-5.54a5.78,5.78,0,0,0,.87.4,9.23,9.23,0,0,0,.89,3,13.76,13.76,0,0,0-.11,5C43.28,86.1,40.52,86.64,39.34,86.74Zm14.56-1a4.57,4.57,0,0,1-6.9.73c-1.1-1.19-1.24-3.13-1.15-4.64a7.08,7.08,0,0,0,4.47,1.74h.39a5.63,5.63,0,0,0,4-1.54l.13-.14A8.51,8.51,0,0,1,53.9,85.71Zm7.67.8a3.2,3.2,0,0,1-2.16.59,9.32,9.32,0,0,1-2.62-3.48l-.09,0a8.1,8.1,0,0,0-.22-4.34,12.18,12.18,0,0,0,.66-2.39,7.45,7.45,0,0,0,6.74,5.35A6.77,6.77,0,0,1,61.57,86.51Zm3.29-6.21a5.69,5.69,0,0,1-6-4.79A7,7,0,0,0,62.24,73,9.32,9.32,0,0,0,63.32,71a9.35,9.35,0,0,0,4.9,3.41A5.76,5.76,0,0,1,64.85,80.31Zm4.2-7.72c-2.74-.48-4.53-3.19-5-4a9.89,9.89,0,0,0,.11-2.13,5,5,0,0,0,4.09-2.3,8.18,8.18,0,0,0,.86-1.68,8.85,8.85,0,0,0,2.68,1C73.42,70.53,69.89,72.28,69.05,72.59ZM75,58.21a6.29,6.29,0,0,1-2.27,3.37,6.85,6.85,0,0,1-3-1.15,14.25,14.25,0,0,0-.35-6.83h0l.6,0a6.15,6.15,0,0,0,3.78-1.82C75,54.16,75.44,56.33,75,58.21Zm-2-8.63a4.55,4.55,0,0,1-3.21,2c-2.18.21-4.31-1.31-5.08-1.93,0-.06,0-.12,0-.18v-.12c0-.51-.36-4.61-2.18-6.7a3.93,3.93,0,0,1,1.94-1.95,6.21,6.21,0,0,1,4.23.16A7.24,7.24,0,0,1,73,49.58ZM69.52,39a8.17,8.17,0,0,0-5.8-.18A5.69,5.69,0,0,0,61,41.23a6.81,6.81,0,0,0-3.85-1.48,6.46,6.46,0,0,0-4.42,1.68,9.1,9.1,0,0,0-6.11-3.1,6.59,6.59,0,0,0-3.08.72l-1.62-2.72c0-.07-3.53-6-2.47-11.4,1,4.25,3.11,10.95,7.36,12.15l.92.26.3-.9a32.39,32.39,0,0,0-3.79-25.77l.31-.26c2,2.54,8.21,11.36,8.38,22.81l.07,4.7,1.85-4.32c.08-.18,1.9-4.43,2.42-6.12a8.49,8.49,0,0,1,2.6-3.86,6.61,6.61,0,0,0-1.64,3.78v.13c-.47,4.57-.8,7.88-1.41,8.93l-2,3.45,3.4-2.1a10.64,10.64,0,0,1,5.94-1c6.22.45,8.56-2.49,9.43-5a11.77,11.77,0,0,1,1.67-3.16,10.35,10.35,0,0,0-.6,3c-.09,2.84-1.94,6.49-4.59,7.71C69.89,39.23,69.72,39.13,69.52,39Z"/><line class="cls-2" x1="69.21" y1="60.1" x2="69.21" y2="60.1"/><text x="0" y="115" fill="#000000" font-size="5px" font-weight="bold" font-family="'Helvetica Neue', Helvetica, Arial-Unicode, Arial, Sans-serif">Created by Icons Producer</text><text x="0" y="120" fill="#000000" font-size="5px" font-weight="bold" font-family="'Helvetica Neue', Helvetica, Arial-Unicode, Arial, Sans-serif">from the Noun Project</text></svg>