<?xml version="1.0" standalone="no"?>
<!DOCTYPE svg PUBLIC "-//W3C//DTD SVG 20010904//EN"
 "http://www.w3.org/TR/2001/REC-SVG-20010904/DTD/svg10.dtd">
<svg version="1.0" xmlns="http://www.w3.org/2000/svg"
 width="700.000000pt" height="581.000000pt" viewBox="0 0 700.000000 581.000000"
 preserveAspectRatio="xMidYMid meet">

<g transform="translate(0.000000,581.000000) scale(0.100000,-0.100000)"
fill="#000000" stroke="none">
<path d="M3091 5534 c-50 -41 -91 -78 -91 -81 0 -3 18 -34 39 -67 134 -213
236 -495 272 -756 18 -125 15 -394 -5 -525 -10 -60 -20 -112 -23 -115 -3 -3
-30 22 -61 55 -115 123 -219 403 -267 720 -9 61 -20 128 -24 150 l-6 39 -57
-89 c-66 -104 -94 -166 -114 -250 -18 -80 -18 -267 2 -363 13 -66 65 -233 88
-283 6 -14 -17 -17 -213 -23 -254 -8 -263 -6 -340 73 -36 37 -69 93 -139 233
-107 216 -170 295 -274 347 -76 38 -132 40 -243 7 -73 -22 -78 -25 -55 -34
101 -41 158 -73 178 -101 57 -79 133 -260 182 -436 26 -96 68 -188 110 -240
16 -21 30 -41 30 -45 0 -3 -19 -17 -41 -29 -74 -42 -173 -145 -208 -216 -77
-155 -77 -328 -3 -479 l39 -78 -23 -42 c-39 -71 -75 -193 -81 -280 -10 -146
31 -260 130 -360 l58 -59 -10 -68 c-33 -211 8 -387 116 -497 38 -39 50 -59 65
-117 25 -99 74 -190 135 -252 48 -49 138 -103 173 -103 11 0 19 -18 27 -62 34
-178 161 -312 333 -352 55 -13 60 -13 60 2 1 16 1 16 10 1 9 -15 17 -15 77 -4
85 16 157 44 208 78 l39 27 44 -50 c153 -175 468 -154 593 40 l32 50 17 -28
c21 -34 83 -97 117 -119 19 -13 26 -14 32 -4 6 9 10 6 14 -10 5 -20 9 -21 67
-15 163 19 275 129 336 330 28 94 30 98 76 128 123 78 208 241 208 399 0 32 5
41 34 58 153 95 225 314 185 561 l-12 69 60 65 c108 115 156 259 135 407 -13
90 -48 197 -92 277 -29 54 -30 60 -24 142 13 167 -41 333 -140 429 l-45 45 77
80 c124 129 179 253 202 452 17 152 67 267 189 435 38 51 68 95 67 97 -8 7
-221 -79 -265 -107 -102 -66 -223 -221 -272 -351 -49 -128 -105 -191 -205
-231 -53 -21 -78 -23 -249 -26 -104 -2 -214 -8 -243 -14 -30 -6 -55 -9 -57 -7
-2 1 0 23 5 49 5 25 18 133 30 240 11 106 28 214 37 238 19 54 81 123 140 158
66 38 144 59 293 77 206 25 206 23 15 72 -215 55 -279 62 -377 40 -95 -21
-177 -69 -249 -146 -65 -69 -105 -139 -150 -264 l-32 -89 -24 119 c-78 384
-243 747 -478 1049 -93 120 -79 117 -184 29z m169 -211 c210 -311 349 -661
395 -996 9 -64 19 -207 23 -319 l7 -203 88 208 c49 115 107 257 128 315 50
137 90 217 134 267 l35 40 -29 -57 c-35 -68 -44 -113 -66 -328 -27 -269 -42
-326 -118 -458 -36 -62 -63 -111 -59 -109 4 2 53 32 110 67 57 34 138 74 180
88 71 23 91 25 246 23 185 -1 271 12 362 53 71 32 156 114 187 179 14 29 46
96 72 150 26 54 48 97 50 95 2 -2 -3 -30 -11 -63 -7 -33 -14 -78 -14 -100 -1
-152 -105 -353 -226 -436 l-45 -30 -42 20 c-97 46 -236 50 -342 10 -51 -19
-131 -84 -152 -123 -10 -18 -12 -17 -54 7 -134 79 -296 78 -407 -3 -23 -16
-45 -30 -48 -30 -4 0 -28 20 -54 44 -124 116 -327 165 -457 111 -45 -19 -37
-27 -120 118 -126 218 -191 458 -173 643 l6 59 12 -45 c119 -427 261 -638 464
-684 26 -6 26 -5 52 102 44 186 51 247 50 467 0 173 -4 230 -22 325 -41 221
-112 422 -208 597 -30 53 -54 101 -54 106 0 25 33 -11 100 -110z m-1210 -1146
c94 -193 160 -275 263 -327 l62 -32 215 3 c336 3 304 7 404 -57 86 -56 86 -57
64 -72 -13 -8 -41 -32 -64 -54 -40 -38 -40 -38 -59 -18 -26 29 -104 77 -155
95 -54 19 -174 22 -225 5 -34 -11 -43 -9 -105 19 -45 21 -95 35 -145 40 -62 7
-84 15 -113 38 -58 47 -99 116 -132 226 -27 89 -73 224 -95 280 -4 9 -4 17 -1
17 3 0 42 -73 86 -163z m283 -522 c20 -3 37 -9 37 -13 0 -4 -20 -28 -46 -52
-89 -89 -137 -190 -155 -330 -11 -94 6 -196 45 -266 13 -24 21 -46 16 -49 -5
-3 -29 -8 -54 -11 -136 -19 -249 87 -279 260 -21 127 23 268 111 354 72 70
201 126 267 116 11 -1 37 -6 58 -9z m1098 -39 c32 -14 77 -44 100 -65 38 -34
42 -42 32 -58 -88 -128 -121 -308 -88 -468 9 -44 17 -86 18 -94 1 -8 -20 -28
-47 -45 -41 -26 -62 -31 -123 -35 -67 -3 -80 0 -139 29 -77 37 -154 111 -192
183 -25 48 -27 61 -27 167 0 63 6 144 14 180 13 59 21 71 77 128 35 34 86 73
116 88 72 34 176 30 259 -10z m1185 3 c120 -45 224 -156 261 -278 21 -70 21
-193 1 -242 -9 -20 -31 -48 -50 -62 -110 -84 -243 -80 -386 12 l-59 39 -6 66
c-12 124 -60 273 -112 342 -14 19 -13 23 10 54 70 95 199 121 341 69z m-1841
-33 c28 -13 63 -37 78 -54 l29 -30 -18 -78 c-13 -54 -19 -119 -19 -204 0 -116
2 -129 28 -184 l28 -60 -29 -35 c-15 -20 -54 -49 -87 -66 -50 -25 -71 -30
-135 -30 -66 0 -83 4 -142 34 -82 41 -156 110 -187 175 -48 99 -36 242 32 369
80 152 282 230 422 163z m1253 -52 c77 -34 154 -119 186 -205 89 -240 41 -425
-133 -518 -73 -38 -136 -48 -216 -31 -125 26 -218 97 -255 196 -40 109 -36
265 12 376 22 51 121 154 176 182 42 22 108 34 147 28 17 -2 54 -15 83 -28z
m502 -684 c94 -195 32 -557 -107 -626 -120 -59 -308 34 -378 189 -26 56 -52
151 -57 206 -3 33 -2 34 51 48 120 30 235 122 287 230 l29 59 82 -41 c53 -26
85 -49 93 -65z m466 -78 c31 -138 4 -250 -82 -351 -35 -40 -40 -43 -78 -39
-23 3 -63 16 -91 29 l-50 24 3 110 c3 72 -2 143 -12 204 -9 52 -15 95 -14 96
2 2 27 8 56 14 55 11 130 46 172 80 l25 20 27 -57 c15 -31 35 -90 44 -130z
m-1974 74 c22 -19 63 -47 92 -62 l52 -27 -4 -142 c-3 -107 0 -162 12 -224 16
-79 16 -83 -4 -128 -65 -147 -215 -221 -392 -193 -88 13 -153 46 -207 105 -74
80 -86 119 -85 270 2 125 15 224 36 270 9 20 13 21 59 12 115 -23 271 25 352
108 23 23 44 43 45 43 2 1 22 -13 44 -32z m-1011 -5 c87 -39 199 -36 281 5 25
13 30 12 76 -22 l48 -36 -17 -52 c-22 -63 -39 -195 -39 -292 0 -70 -1 -73 -35
-102 -45 -40 -90 -52 -198 -52 l-88 0 -53 53 c-80 80 -101 132 -101 247 1 52
7 113 14 135 23 68 53 135 61 135 4 0 27 -9 51 -19z m1604 -62 c46 -45 155
-104 213 -114 l39 -6 6 -65 c4 -35 20 -105 37 -155 36 -109 33 -130 -33 -205
-49 -56 -131 -98 -226 -115 -87 -15 -157 4 -230 61 -99 78 -142 197 -140 387
1 157 1 157 80 165 62 6 136 35 184 72 11 8 22 15 25 15 3 0 23 -18 45 -40z
m1206 -594 c15 -87 6 -234 -17 -300 -19 -54 -112 -157 -150 -167 -59 -15 -207
83 -275 182 -35 52 -37 58 -32 116 l5 61 53 12 c96 22 192 105 226 197 l12 30
83 -30 83 -31 12 -70z m-2407 2 c25 -53 107 -141 163 -174 39 -23 41 -26 32
-51 -44 -115 -179 -219 -324 -250 -109 -23 -107 -24 -147 20 -21 23 -47 66
-59 97 -24 64 -35 197 -22 281 l8 55 85 1 c82 2 188 28 214 54 18 18 31 10 50
-33z m1662 4 c24 -21 69 -49 100 -62 l56 -24 -5 -85 c-12 -211 -137 -365 -305
-378 -78 -5 -119 9 -176 58 -69 61 -122 183 -111 256 l6 40 62 13 c120 25 246
103 297 186 12 19 24 35 27 35 3 0 25 -17 49 -39z m-761 -80 c52 -50 101 -79
166 -100 36 -12 36 -12 32 -59 -14 -141 -66 -269 -132 -323 -98 -81 -249 -70
-342 25 -44 44 -91 130 -113 205 -24 83 -23 87 32 95 95 13 212 85 269 166 15
22 30 40 32 40 2 0 27 -22 56 -49z m-521 -234 c19 -83 62 -180 111 -249 l34
-47 -15 -46 c-38 -111 -179 -210 -342 -241 -74 -14 -88 -14 -135 0 -93 27
-154 96 -197 221 -11 32 -19 59 -17 61 1 1 34 10 72 19 172 39 324 150 395
287 27 52 40 68 56 68 19 0 24 -10 38 -73z m1561 -128 c53 -53 136 -108 198
-130 20 -7 38 -20 38 -29 11 -118 -46 -237 -147 -306 -50 -35 -57 -37 -110
-31 -78 8 -173 56 -223 113 -34 39 -81 133 -81 163 0 4 23 18 52 32 66 31 145
109 183 182 17 31 32 57 35 57 3 0 28 -23 55 -51z m-695 -137 c19 -18 63 -47
98 -63 47 -23 62 -35 58 -47 -2 -9 -10 -42 -16 -72 -25 -110 -82 -195 -155
-230 -55 -26 -145 -28 -216 -5 -87 29 -180 133 -203 227 -7 30 -8 29 78 43 53
9 123 46 165 87 41 40 101 127 101 148 1 9 12 1 28 -20 15 -19 43 -50 62 -68z
m-564 -161 c3 -14 13 -53 23 -86 15 -49 17 -89 15 -225 l-3 -165 -33 -28 c-76
-64 -225 -93 -319 -62 -72 24 -168 119 -192 189 -29 84 -26 90 45 105 179 37
327 143 393 283 16 33 20 35 42 25 13 -6 26 -22 29 -36z m859 -66 c59 -121
196 -225 321 -243 48 -8 49 -8 46 -41 -6 -81 -95 -210 -166 -242 -67 -30 -87
-25 -143 34 -27 28 -62 74 -79 102 -27 46 -29 56 -26 136 2 48 -2 105 -8 128
-9 35 -8 55 7 112 9 38 18 69 19 69 1 0 14 -25 29 -55z m-552 -310 c65 -19
202 -19 256 0 23 8 61 28 86 45 50 34 51 34 34 -56 -30 -165 -128 -254 -278
-254 -151 0 -251 114 -251 286 l0 63 51 -35 c28 -18 74 -41 102 -49z"/>
</g>
</svg>
