<?xml version="1.0" standalone="no"?>
<!DOCTYPE svg PUBLIC "-//W3C//DTD SVG 20010904//EN"
 "http://www.w3.org/TR/2001/REC-SVG-20010904/DTD/svg10.dtd">
<svg version="1.0" xmlns="http://www.w3.org/2000/svg"
 width="100.000000pt" height="91.000000pt" viewBox="0 0 100.000000 91.000000"
 preserveAspectRatio="xMidYMid meet">

<g transform="translate(0.000000,91.000000) scale(0.100000,-0.100000)"
fill="#000000" stroke="none">
<path d="M433 904 c-18 -8 -16 -24 3 -24 24 0 44 -63 44 -139 0 -73 -7 -88
-37 -72 -10 5 -38 14 -63 21 -25 6 -60 26 -79 43 l-33 32 4 -42 3 -42 -62 -11
c-46 -9 -71 -9 -94 -1 -47 16 -51 14 -34 -20 9 -17 31 -37 51 -45 31 -13 33
-17 23 -36 -7 -13 -9 -37 -4 -62 4 -23 8 -69 10 -104 3 -66 24 -111 54 -119
10 -3 22 -22 29 -49 9 -33 20 -50 42 -62 17 -9 33 -25 36 -35 8 -27 56 -67 79
-67 11 0 26 -9 33 -20 28 -46 118 -45 142 1 6 10 19 19 29 19 23 0 71 37 71
55 0 7 15 24 34 39 20 15 41 44 51 71 10 24 26 47 35 50 27 9 51 69 49 123 -1
26 3 61 9 79 6 18 8 42 5 53 -4 15 4 31 25 53 45 47 70 117 34 98 -21 -11 -66
-15 -134 -13 l-47 2 15 35 c8 19 13 35 10 35 -2 0 -21 -6 -42 -14 -22 -7 -64
-17 -94 -21 -30 -4 -65 -11 -76 -16 -21 -7 -22 -5 -26 71 -4 105 -41 156 -95
134z m56 -28 c22 -26 35 -118 24 -161 l-11 -40 -1 55 c-1 30 -10 79 -20 108
-18 51 -15 66 8 38z m-125 -196 c25 0 90 -29 83 -37 -4 -3 -18 0 -31 7 -15 8
-39 10 -61 7 -32 -5 -38 -3 -55 26 -28 46 -25 52 13 23 19 -15 41 -26 51 -26z
m359 8 c-26 -26 -40 -32 -68 -30 -19 2 -43 -2 -53 -7 -13 -7 -24 -4 -42 9
l-24 18 40 11 c21 6 53 11 69 12 17 1 41 5 55 9 49 16 55 10 23 -22z m180 -49
c-30 -52 -47 -57 -75 -24 -26 30 -73 38 -112 20 -14 -6 -18 -5 -14 6 3 10 30
16 99 20 52 3 100 6 107 7 10 1 9 -6 -5 -29z m-596 4 c3 -9 -5 -9 -32 -1 -31
10 -39 9 -66 -11 -22 -17 -38 -21 -57 -16 -28 7 -52 23 -52 34 0 12 203 7 207
-6z m263 -13 c16 -17 31 -41 33 -53 4 -20 4 -20 6 4 0 14 -4 30 -11 37 -8 8
-5 14 15 21 49 19 96 -15 112 -81 21 -83 -59 -163 -126 -128 -18 10 -18 13 -4
33 8 12 15 33 14 47 -1 23 -2 22 -10 -7 -10 -34 -61 -83 -86 -83 -9 0 -14 -3
-10 -6 3 -4 20 -1 37 4 22 8 38 8 56 0 23 -11 25 -17 21 -51 -8 -55 -31 -77
-83 -77 -34 0 -47 5 -58 23 -32 51 -31 122 2 110 11 -4 8 3 -10 23 -54 59 -58
128 -11 185 34 40 75 39 113 -1z m-162 4 c17 -12 20 -19 12 -34 -14 -27 -12
-91 5 -120 12 -22 11 -27 -2 -42 -45 -50 -133 8 -133 88 0 58 18 94 55 110 38
17 36 17 63 -2z m-123 -14 c3 -6 1 -26 -6 -45 -10 -27 -10 -45 -2 -77 14 -52
4 -68 -43 -68 -42 0 -64 30 -64 88 0 69 31 111 82 112 15 0 30 -5 33 -10z
m516 0 c25 -14 49 -62 49 -97 0 -15 -9 -43 -20 -60 -21 -35 -53 -43 -90 -23
-16 9 -18 15 -10 36 13 33 13 90 0 115 -6 11 -8 24 -5 29 8 13 51 13 76 0z
m-498 -232 c-2 -69 -1 -64 -19 -82 -21 -22 -60 -20 -84 4 -15 15 -20 33 -20
69 l0 48 49 -5 c30 -2 51 0 55 7 15 23 21 9 19 -41z m437 -2 c0 -37 -23 -73
-54 -87 -20 -8 -20 -9 4 -8 37 1 70 -11 70 -28 0 -28 -31 -73 -60 -88 -17 -9
-28 -20 -25 -24 10 -17 -36 -61 -64 -61 -36 0 -42 7 -30 38 13 34 27 42 59 36
21 -4 22 -3 8 6 -15 9 -15 14 -2 45 20 50 18 82 -7 90 -16 5 -19 12 -15 28 4
12 9 34 12 50 4 16 13 27 23 27 10 0 26 6 37 14 25 19 44 3 44 -38z m89 -30
c-8 -45 -33 -68 -69 -64 -19 2 -24 8 -22 23 17 104 15 100 52 105 42 6 50 -6
39 -64z m-389 31 c0 -15 5 -38 11 -49 15 -28 -11 -48 -62 -48 -47 0 -69 27
-69 85 l0 40 60 0 c59 1 60 0 60 -28z m-76 -154 c20 -63 20 -61 -1 -66 -10 -3
-2 -4 17 -4 28 2 36 -3 48 -26 17 -34 9 -47 -28 -47 -30 0 -60 30 -60 60 0 8
-12 21 -28 27 -28 13 -62 60 -62 85 1 7 15 22 33 34 29 19 33 20 48 5 9 -9 24
-39 33 -68z m130 52 c16 -12 17 -18 7 -46 -26 -75 -77 -92 -111 -36 -27 43
-26 67 3 67 12 1 33 7 47 15 31 18 31 18 54 0z m144 -26 c6 -70 -67 -118 -102
-67 -22 31 -21 78 2 78 9 0 28 7 42 14 39 22 55 15 58 -25z m-80 -99 c15 0 15
-15 1 -43 -31 -58 -93 -47 -113 21 -5 15 -3 22 7 22 8 0 22 9 32 20 l18 20 22
-20 c12 -11 27 -20 33 -20z m-49 -100 c8 0 22 7 32 16 28 26 44 6 18 -22 -28
-30 -79 -32 -103 -5 -24 27 -11 46 17 26 12 -8 28 -15 36 -15z"/>
</g>
</svg>
